<svg width="29" height="25" viewBox="0 0 29 25" fill="none" xmlns="http://www.w3.org/2000/svg">
<path d="M2.125 24.875C1.73542 24.875 1.40885 24.7432 1.14531 24.4797C0.881771 24.2161 0.75 23.8896 0.75 23.5C0.75 23.1104 0.881771 22.7839 1.14531 22.5203C1.40885 22.2568 1.73542 22.125 2.125 22.125H26.875C27.2646 22.125 27.5911 22.2568 27.8547 22.5203C28.1182 22.7839 28.25 23.1104 28.25 23.5C28.25 23.8896 28.1182 24.2161 27.8547 24.4797C27.5911 24.7432 27.2646 24.875 26.875 24.875H2.125ZM4.1875 20.75C3.61458 20.75 3.1276 20.5495 2.72656 20.1484C2.32552 19.7474 2.125 19.2604 2.125 18.6875V13.1875C2.125 12.6146 2.32552 12.1276 2.72656 11.7266C3.1276 11.3255 3.61458 11.125 4.1875 11.125C4.76042 11.125 5.2474 11.3255 5.64844 11.7266C6.04948 12.1276 6.25 12.6146 6.25 13.1875V18.6875C6.25 19.2604 6.04948 19.7474 5.64844 20.1484C5.2474 20.5495 4.76042 20.75 4.1875 20.75ZM11.0625 20.75C10.4896 20.75 10.0026 20.5495 9.60156 20.1484C9.20052 19.7474 9 19.2604 9 18.6875V6.3125C9 5.73958 9.20052 5.2526 9.60156 4.85156C10.0026 4.45052 10.4896 4.25 11.0625 4.25C11.6354 4.25 12.1224 4.45052 12.5234 4.85156C12.9245 5.2526 13.125 5.73958 13.125 6.3125V18.6875C13.125 19.2604 12.9245 19.7474 12.5234 20.1484C12.1224 20.5495 11.6354 20.75 11.0625 20.75ZM17.9375 20.75C17.3646 20.75 16.8776 20.5495 16.4766 20.1484C16.0755 19.7474 15.875 19.2604 15.875 18.6875V10.4375C15.875 9.86458 16.0755 9.3776 16.4766 8.97656C16.8776 8.57552 17.3646 8.375 17.9375 8.375C18.5104 8.375 18.9974 8.57552 19.3984 8.97656C19.7995 9.3776 20 9.86458 20 10.4375V18.6875C20 19.2604 19.7995 19.7474 19.3984 20.1484C18.9974 20.5495 18.5104 20.75 17.9375 20.75ZM24.8125 20.75C24.2396 20.75 23.7526 20.5495 23.3516 20.1484C22.9505 19.7474 22.75 19.2604 22.75 18.6875V2.1875C22.75 1.61458 22.9505 1.1276 23.3516 0.726562C23.7526 0.325521 24.2396 0.125 24.8125 0.125C25.3854 0.125 25.8724 0.325521 26.2734 0.726562C26.6745 1.1276 26.875 1.61458 26.875 2.1875V18.6875C26.875 19.2604 26.6745 19.7474 26.2734 20.1484C25.8724 20.5495 25.3854 20.75 24.8125 20.75Z" fill="white"/>
</svg>
