<svg width="33" height="33" viewBox="0 0 33 33" fill="none" xmlns="http://www.w3.org/2000/svg">
<path d="M7.80526 32.4887C7.5008 32.1632 7.34857 31.749 7.34857 31.246C7.34857 30.743 7.5008 30.3287 7.80526 30.0032L15.7351 21.4816C16.3717 20.8011 17.1605 20.4608 18.1016 20.4608C19.0426 20.4608 19.8314 20.8011 20.468 21.4816L23.914 25.1654L31.3456 17.2208C31.6777 16.8657 32.0652 16.6882 32.5081 16.6882C32.9509 16.6882 33.3384 16.8657 33.6705 17.2208C34.0027 17.5759 34.1688 17.9975 34.1688 18.4857C34.1688 18.9739 34.0027 19.3956 33.6705 19.7506L26.2805 27.6953C25.6439 28.3758 24.862 28.7161 23.9347 28.7161C23.0075 28.7161 22.2256 28.3758 21.589 27.6953L18.1016 23.9671L10.1302 32.4887C9.82576 32.8142 9.44519 32.9843 8.9885 32.9991C8.53181 33.0139 8.13739 32.8438 7.80526 32.4887ZM3.32139 31.9561C2.408 31.9561 1.62609 31.6084 0.975657 30.9131C0.325219 30.2177 0 29.3819 0 28.4054V3.55068C0 2.57424 0.325219 1.73835 0.975657 1.04301C1.62609 0.347671 2.408 0 3.32139 0H26.5711C27.4845 0 28.2664 0.347671 28.9168 1.04301C29.5672 1.73835 29.8925 2.57424 29.8925 3.55068V10.652C29.8925 11.155 29.7333 11.5767 29.415 11.917C29.0967 12.2572 28.7023 12.4274 28.2318 12.4274H3.32139V31.9561Z" fill="white"/>
</svg>
