<svg width="35" height="33" viewBox="0 0 35 33" fill="none" xmlns="http://www.w3.org/2000/svg">
<path d="M17.0844 33C16.6003 33 16.1948 32.824 15.868 32.472C15.5399 32.1212 15.3759 31.6861 15.3759 31.1667C15.3759 30.6472 15.5399 30.2121 15.868 29.8613C16.1948 29.5093 16.6003 29.3333 17.0844 29.3333H29.0434V16.3167C29.0434 14.5444 28.7302 12.8792 28.1038 11.3208C27.4774 9.7625 26.6232 8.40278 25.5411 7.24167C24.4591 6.08056 23.192 5.16389 21.7399 4.49167C20.2877 3.81944 18.7359 3.48333 17.0844 3.48333C15.4329 3.48333 13.8811 3.81944 12.4289 4.49167C10.9767 5.16389 9.70962 6.08056 8.62761 7.24167C7.5456 8.40278 6.69138 9.7625 6.06495 11.3208C5.43853 12.8792 5.12531 14.5444 5.12531 16.3167V25.6667C5.12531 26.1861 4.96187 26.6212 4.63499 26.972C4.30697 27.324 3.90093 27.5 3.41688 27.5C2.47723 27.5 1.67313 27.1413 1.00456 26.4238C0.334854 25.7052 0 24.8417 0 23.8333V20.1667C0 19.4639 0.156607 18.8448 0.46982 18.3095C0.783034 17.7754 1.19591 17.3403 1.70844 17.0042L1.83657 14.575C2.09284 12.3444 2.68396 10.3278 3.60993 8.525C4.53476 6.72222 5.68796 5.19444 7.06951 3.94167C8.44993 2.68889 10.0018 1.71844 11.725 1.03033C13.4471 0.343445 15.2336 0 17.0844 0C18.9637 0 20.7649 0.343445 22.4882 1.03033C24.2103 1.71844 25.7547 2.69622 27.1214 3.96367C28.4882 5.23233 29.6346 6.76011 30.5605 8.547C31.4854 10.3351 32.0759 12.3292 32.3322 14.5292L32.4603 16.9125C32.9728 17.1875 33.3857 17.5921 33.6989 18.1262C34.0121 18.6615 34.1688 19.25 34.1688 19.8917V24.1083C34.1688 24.7806 34.0121 25.3764 33.6989 25.8958C33.3857 26.4153 32.9728 26.8125 32.4603 27.0875V29.3333C32.4603 30.3417 32.126 31.2052 31.4575 31.9238C30.7878 32.6413 29.9831 33 29.0434 33H17.0844ZM11.9591 20.1667C11.475 20.1667 11.0695 19.9907 10.7427 19.6387C10.4146 19.2879 10.2506 18.8528 10.2506 18.3333C10.2506 17.8139 10.4146 17.3782 10.7427 17.0262C11.0695 16.6754 11.475 16.5 11.9591 16.5C12.4431 16.5 12.8492 16.6754 13.1772 17.0262C13.5041 17.3782 13.6675 17.8139 13.6675 18.3333C13.6675 18.8528 13.5041 19.2879 13.1772 19.6387C12.8492 19.9907 12.4431 20.1667 11.9591 20.1667ZM22.2097 20.1667C21.7256 20.1667 21.3202 19.9907 20.9933 19.6387C20.6653 19.2879 20.5013 18.8528 20.5013 18.3333C20.5013 17.8139 20.6653 17.3782 20.9933 17.0262C21.3202 16.6754 21.7256 16.5 22.2097 16.5C22.6937 16.5 23.0998 16.6754 23.4278 17.0262C23.7547 17.3782 23.9181 17.8139 23.9181 18.3333C23.9181 18.8528 23.7547 19.2879 23.4278 19.6387C23.0998 19.9907 22.6937 20.1667 22.2097 20.1667ZM6.87646 17.325C6.76257 15.5222 6.99776 13.8875 7.58205 12.4208C8.16519 10.9542 8.94766 9.70872 9.92944 8.6845C10.9124 7.6615 12.0445 6.875 13.3258 6.325C14.6071 5.775 15.8885 5.5 17.1698 5.5C19.7609 5.5 22.0035 6.37878 23.8976 8.13633C25.7906 9.89267 26.9364 12.0847 27.335 14.7125C24.6584 14.6819 22.2382 13.9101 20.0741 12.397C17.9101 10.8851 16.2729 8.92222 15.1624 6.50833C14.7068 8.98333 13.7461 11.1754 12.2802 13.0845C10.8133 14.9948 9.01201 16.4083 6.87646 17.325Z" fill="white"/>
</svg>
